<svg xmlns="http://www.w3.org/2000/svg" width="1024" height="1024" viewBox="0 0 1024 1024" fill="none">
  <rect width="1024" height="1024" fill="#fbfdff"/>
  <defs>
    <radialGradient id="cornerA" cx="0" cy="0" r="1" gradientUnits="userSpaceOnUse" gradientTransform="translate(1008 92) rotate(129) scale(212)">
      <stop stop-color="#dce9ff" stop-opacity=".88"/>
      <stop offset="1" stop-color="#dce9ff" stop-opacity="0"/>
    </radialGradient>
    <radialGradient id="cornerB" cx="0" cy="0" r="1" gradientUnits="userSpaceOnUse" gradientTransform="translate(32 790) rotate(-31) scale(286)">
      <stop stop-color="#d7e4ff" stop-opacity=".82"/>
      <stop offset="1" stop-color="#d7e4ff" stop-opacity="0"/>
    </radialGradient>
    <radialGradient id="cornerC" cx="0" cy="0" r="1" gradientUnits="userSpaceOnUse" gradientTransform="translate(936 960) rotate(-124) scale(210)">
      <stop stop-color="#d9e8ff" stop-opacity=".78"/>
      <stop offset="1" stop-color="#d9e8ff" stop-opacity="0"/>
    </radialGradient>
    <linearGradient id="wave" x1="36" y1="876" x2="940" y2="680" gradientUnits="userSpaceOnUse">
      <stop stop-color="#9dbef8" stop-opacity=".32"/>
      <stop offset=".48" stop-color="#a9c8fa" stop-opacity=".2"/>
      <stop offset="1" stop-color="#9dbef8" stop-opacity="0"/>
    </linearGradient>
    <filter id="soft" x="-20%" y="-20%" width="140%" height="140%" color-interpolation-filters="sRGB">
      <feGaussianBlur stdDeviation="18"/>
    </filter>
  </defs>
  <rect width="1024" height="1024" fill="url(#cornerA)"/>
  <rect width="1024" height="1024" fill="url(#cornerB)"/>
  <rect width="1024" height="1024" fill="url(#cornerC)"/>
  <circle cx="990" cy="86" r="118" fill="#e5efff" opacity=".66"/>
  <circle cx="-16" cy="748" r="122" fill="#dfe8ff" opacity=".58"/>
  <circle cx="1010" cy="968" r="122" fill="#dceaff" opacity=".5"/>
  <g opacity=".38" stroke="#9bbdff" stroke-width="1.15">
    <path d="M-70 788C157 966 358 972 565 820C707 716 825 650 1004 650"/>
    <path d="M-65 800C162 964 361 960 568 812C709 711 830 645 1008 644"/>
    <path d="M-58 812C168 962 365 948 572 804C712 706 834 640 1012 638"/>
    <path d="M-50 824C174 960 369 936 576 796C714 701 839 635 1016 632"/>
    <path d="M-42 836C180 958 373 924 580 788C717 696 843 630 1020 626"/>
    <path d="M-34 848C186 956 377 912 584 780C720 691 848 625 1024 620"/>
    <path d="M-26 860C192 954 381 900 588 772C722 686 852 620 1028 614"/>
  </g>
  <path d="M-72 858C144 752 280 748 416 834C557 922 730 748 1028 764L1028 1028H-72V858Z" fill="url(#wave)" opacity=".6" filter="url(#soft)"/>
  <g opacity=".55" stroke="#c4d8ff" stroke-width="1.2">
    <path d="M1018 62C966 98 948 142 956 194C964 247 999 281 1044 304" stroke-dasharray="7 8"/>
    <circle cx="948" cy="198" r="11" fill="#51aefd" stroke="#8cc8ff"/>
  </g>
  <g opacity=".38" stroke="#ffffff" stroke-width="1.4">
    <path d="M894 468L962 434L1024 468V544L958 580L894 544V468Z"/>
    <path d="M894 468L958 502L1024 468"/>
    <path d="M958 502V580"/>
  </g>
  <g fill="#8fb8ff" opacity=".38">
    <circle cx="44" cy="50" r="2.2"/><circle cx="58" cy="50" r="2.2"/><circle cx="72" cy="50" r="2.2"/><circle cx="86" cy="50" r="2.2"/><circle cx="100" cy="50" r="2.2"/><circle cx="114" cy="50" r="2.2"/>
    <circle cx="44" cy="64" r="2.2"/><circle cx="58" cy="64" r="2.2"/><circle cx="72" cy="64" r="2.2"/><circle cx="86" cy="64" r="2.2"/><circle cx="100" cy="64" r="2.2"/><circle cx="114" cy="64" r="2.2"/>
    <circle cx="44" cy="78" r="2.2"/><circle cx="58" cy="78" r="2.2"/><circle cx="72" cy="78" r="2.2"/><circle cx="86" cy="78" r="2.2"/><circle cx="100" cy="78" r="2.2"/><circle cx="114" cy="78" r="2.2"/>
    <circle cx="44" cy="92" r="2.2"/><circle cx="58" cy="92" r="2.2"/><circle cx="72" cy="92" r="2.2"/><circle cx="86" cy="92" r="2.2"/><circle cx="100" cy="92" r="2.2"/><circle cx="114" cy="92" r="2.2"/>
    <circle cx="44" cy="106" r="2.2"/><circle cx="58" cy="106" r="2.2"/><circle cx="72" cy="106" r="2.2"/><circle cx="86" cy="106" r="2.2"/><circle cx="100" cy="106" r="2.2"/><circle cx="114" cy="106" r="2.2"/>
    <circle cx="44" cy="120" r="2.2"/><circle cx="58" cy="120" r="2.2"/><circle cx="72" cy="120" r="2.2"/><circle cx="86" cy="120" r="2.2"/><circle cx="100" cy="120" r="2.2"/><circle cx="114" cy="120" r="2.2"/>
  </g>
</svg>
